# xmcd CD database file
#
# Track frame offsets:
#	150
#	16237
#	31542
#	46820
#	62314
#	75594
#	90872
#	110954
#	124153
#	140159
#	156273
#	167907
#	180782
#	194791
#	211040
#
# Disc length: 2988 seconds
#
# Revision: 0
# Processed by: cddbd v1.5.1PL0 Copyright (c) Steve Scherf et al.
# Submitted via: CDex 1.51
#
DISCID=ba0baa0f
DTITLE=Tiao Carreiro E Pardinho - Modas de Viola Classe A Vol. 2
DYEAR=1900
DGENRE=Blues
TTITLE0=Consagração
TTITLE1=Arreio de Prata
TTITLE2=Boiada Cuiabana
TTITLE3=Velho Peão
TTITLE4=Pousada de Boiadeiro
TTITLE5=Viola Vermelha
TTITLE6=Exemplo de Humildade
TTITLE7=Cabelos Cor de Prata
TTITLE8=Ultima Viagem
TTITLE9=Fazenda Caioçara
TTITLE10=Saudosa Vida de Peão
TTITLE11=Boi Cigano
TTITLE12=Um Pouco de Minha Vida
TTITLE13=Derrota de Boi Palácio
TTITLE14=Boi Sete Ouro
EXTD=
EXTT0=
EXTT1=
EXTT2=
EXTT3=
EXTT4=
EXTT5=
EXTT6=
EXTT7=
EXTT8=
EXTT9=
EXTT10=
EXTT11=
EXTT12=
EXTT13=
EXTT14=
PLAYORDER=
